<svg xmlns="http://www.w3.org/2000/svg" width="40" height="40" viewBox="0 0 40 40">
  <g id="Layer_2" data-name="Layer 2" transform="translate(0.116 0.116)">
    <g id="invisible_box" data-name="invisible box">
      <rect id="Rechteck_92" data-name="Rechteck 92" width="40" height="40" transform="translate(-0.116 -0.116)" fill="none"/>
    </g>
    <g id="icons_Q2" data-name="icons Q2" transform="translate(4.986 8.309)">
      <g id="Gruppe_17" data-name="Gruppe 17">
        <path id="Pfad_55" data-name="Pfad 55" d="M35.913,11.662a1.662,1.662,0,0,1-1.662,1.662H7.662A1.662,1.662,0,0,1,6,11.662H6A1.662,1.662,0,0,1,7.662,10H34.251A1.662,1.662,0,0,1,35.913,11.662Z" transform="translate(-6 -10)" fill="#fff"/>
        <path id="Pfad_56" data-name="Pfad 56" d="M35.913,23.662a1.662,1.662,0,0,1-1.662,1.662H7.662A1.662,1.662,0,0,1,6,23.662H6A1.662,1.662,0,0,1,7.662,22H34.251A1.662,1.662,0,0,1,35.913,23.662Z" transform="translate(-6 -12.029)" fill="#fff"/>
        <path id="Pfad_57" data-name="Pfad 57" d="M35.913,35.662a1.662,1.662,0,0,1-1.662,1.662H7.662A1.662,1.662,0,0,1,6,35.662H6A1.662,1.662,0,0,1,7.662,34H34.251A1.662,1.662,0,0,1,35.913,35.662Z" transform="translate(-6 -14.058)" fill="#fff"/>
      </g>
    </g>
  </g>
</svg>
