<svg xmlns="http://www.w3.org/2000/svg" width="44" height="44" viewBox="0 0 44 44">
  <g id="Layer_2" data-name="Layer 2" transform="translate(0.844 0.844)">
    <g id="invisible_box" data-name="invisible box" transform="translate(-0.499 -0.499)">
      <rect id="Rechteck_59" data-name="Rechteck 59" width="44" height="44" transform="translate(-0.344 -0.344)" fill="none"/>
    </g>
    <g id="icons_Q2" data-name="icons Q2" transform="translate(8.972 8.934)">
      <path id="Pfad_42" data-name="Pfad 42" d="M25.114,22.591l9.536-9.446a1.889,1.889,0,0,0,.18-2.429,1.709,1.709,0,0,0-2.7-.18l-9.536,9.536-9.536-9.536a1.709,1.709,0,0,0-2.7.18,1.889,1.889,0,0,0,.18,2.429l9.536,9.446L10.54,32.037a1.889,1.889,0,0,0-.18,2.429,1.709,1.709,0,0,0,2.7.18l9.536-9.536,9.536,9.536a1.709,1.709,0,0,0,2.7-.18,1.889,1.889,0,0,0-.18-2.429Z" transform="translate(-10.001 -9.959)" fill="#fff"/>
    </g>
  </g>
</svg>
